<?xml version="1.0" standalone="no"?>
<!DOCTYPE svg PUBLIC "-//W3C//DTD SVG 20010904//EN"
 "http://www.w3.org/TR/2001/REC-SVG-20010904/DTD/svg10.dtd">
<svg version="1.0" xmlns="http://www.w3.org/2000/svg"
 width="264.000000pt" height="264.000000pt" viewBox="0 0 264.000000 264.000000"
 preserveAspectRatio="xMidYMid meet">

<g transform="translate(0.000000,264.000000) scale(0.100000,-0.100000)"
fill="#000000" stroke="none">
<path d="M1109 2619 c-148 -21 -303 -74 -311 -106 -2 -10 0 -58 5 -106 6 -51
6 -92 1 -96 -10 -8 -301 -91 -320 -91 -7 0 -14 -7 -18 -15 -3 -8 -12 -15 -21
-15 -13 0 -15 -25 -15 -175 0 -205 -18 -187 154 -150 64 14 117 25 119 25 3 0
7 -22 10 -49 11 -89 64 -161 120 -161 19 0 26 -28 28 -115 l2 -69 27 32 c29
35 54 43 43 15 -6 -16 -5 -17 13 -3 10 8 22 19 26 24 7 11 63 -10 84 -32 22
-21 30 -5 9 18 -9 10 -20 19 -24 18 -3 -1 -13 2 -21 5 -8 3 -24 8 -35 10 -19
4 -19 4 -1 12 32 14 86 -24 141 -97 48 -64 103 -162 125 -221 5 -16 14 -26 19
-23 5 3 12 -1 15 -10 3 -8 10 -13 15 -9 5 3 12 1 16 -5 3 -5 -1 -10 -9 -10 -9
0 -16 -6 -16 -14 0 -18 -22 -26 -50 -19 -20 5 -21 4 -11 -15 16 -30 14 -39 -4
-16 -13 17 -14 18 -15 1 0 -10 7 -20 15 -23 8 -4 12 -10 9 -15 -7 -13 -23 -1
-35 25 -7 16 -8 14 -3 -12 7 -40 0 -40 -32 -2 -14 16 -39 36 -56 45 -51 25
-55 17 -7 -14 38 -23 46 -34 46 -59 0 -22 -5 -29 -16 -27 -9 2 -24 4 -33 4 -9
1 -24 8 -32 17 -9 8 -21 12 -27 8 -8 -4 -9 -3 -5 4 4 7 2 12 -3 12 -20 0 -11
-25 14 -44 14 -10 25 -26 25 -34 0 -8 -3 -12 -7 -9 -3 4 -12 2 -20 -4 -9 -9
-13 -8 -13 0 0 6 -6 11 -13 11 -7 0 -23 11 -35 25 -22 25 -56 33 -67 15 -4 -6
6 -10 24 -10 21 0 32 -6 36 -20 3 -11 11 -20 18 -20 7 0 6 -4 -2 -13 -11 -10
-14 -9 -18 1 -6 17 -32 42 -44 42 -20 0 -7 -19 37 -55 25 -20 43 -39 41 -41
-4 -5 -97 43 -112 57 -6 7 -5 13 5 20 13 9 12 10 -2 5 -19 -6 -19 -4 -22 51 0
17 -5 35 -9 40 -5 4 -8 4 -7 -2 4 -20 -1 -30 -9 -17 -7 11 -15 11 -45 -2 -20
-8 -36 -11 -36 -6 0 4 -9 6 -20 3 -12 -3 -20 0 -20 7 0 7 -8 10 -20 7 -11 -3
-20 -1 -20 5 0 5 -4 7 -9 3 -5 -3 -12 -1 -16 5 -10 16 -26 11 -23 -7 2 -13 -4
-18 -22 -19 -32 -2 -46 6 -29 17 12 7 12 9 0 9 -7 0 -11 6 -7 15 3 8 1 15 -4
15 -9 0 -14 -22 -11 -42 0 -5 -5 -7 -12 -5 -6 1 -11 -4 -9 -11 1 -8 -2 -11 -7
-7 -6 3 -16 -3 -23 -15 -15 -23 -28 -26 -28 -6 0 7 9 16 20 19 20 5 28 27 10
27 -5 0 -10 -5 -10 -11 0 -6 -6 -9 -14 -6 -8 3 -17 2 -20 -4 -2 -5 -3 -4 -2 3
2 7 8 12 14 11 6 -1 9 10 7 25 -2 15 1 29 6 32 4 3 4 12 -1 20 -8 13 -10 12
-10 -2 0 -10 -6 -16 -12 -14 -7 1 -10 1 -5 -1 4 -3 7 -14 7 -25 0 -15 -5 -19
-18 -16 -11 3 -19 0 -19 -8 0 -7 3 -11 7 -9 4 2 7 -3 7 -11 0 -10 -8 -7 -25
11 -14 15 -21 30 -16 34 18 13 13 29 -11 33 -13 3 -22 1 -19 -4 3 -4 -2 -11
-11 -14 -12 -5 -16 -18 -15 -48 3 -59 1 -68 -9 -61 -5 3 -12 -3 -14 -12 -3
-10 -5 1 -6 24 -1 39 -3 42 -23 39 -13 -3 -27 -5 -33 -6 -5 -1 -1 -5 10 -9 12
-5 23 -4 27 3 4 6 8 -3 8 -21 0 -48 -15 -48 -44 2 -19 32 -31 43 -43 38 -23
-9 -8 14 19 28 18 10 20 9 15 -4 -4 -11 -2 -14 8 -10 8 3 13 9 10 13 -3 5 -2
10 2 13 5 2 2 2 -5 0 -9 -2 -12 4 -8 20 l6 22 -11 -22 c-16 -30 -37 -36 -57
-17 -15 15 -14 19 16 45 18 16 29 29 25 29 -4 0 -18 -10 -31 -22 l-24 -23 7
50 c4 28 10 59 13 70 4 18 7 40 11 93 1 14 3 14 10 3 5 -8 8 -22 6 -31 -2 -9
5 -21 15 -28 16 -10 18 -7 16 26 0 22 -7 40 -16 44 -13 6 -13 7 1 7 11 1 15 9
14 26 -2 15 3 29 13 35 10 5 12 10 6 10 -12 0 -36 -24 -30 -31 2 -2 -4 -12
-14 -22 -17 -17 -17 -13 -14 85 2 57 3 117 3 134 1 34 19 89 21 64 1 -8 2 -33
1 -55 0 -22 2 -34 5 -27 3 6 11 9 16 6 7 -5 8 -2 2 7 -15 24 -11 79 6 76 11
-1 15 9 16 41 1 23 -3 45 -7 48 -5 2 -4 16 1 30 14 36 12 43 -4 15 -13 -24
-14 -24 -25 -3 -14 26 -14 32 0 32 5 0 7 -4 4 -10 -9 -14 7 -12 28 4 18 14 18
14 0 19 -14 4 -12 5 7 7 14 1 28 2 33 1 4 0 7 4 7 9 0 6 6 10 13 10 7 0 22 6
32 14 15 10 19 29 21 91 2 48 -1 86 -9 99 -11 19 -12 17 -18 -24 l-6 -45 -1
43 c-2 34 -5 42 -21 42 -11 0 -26 -7 -35 -15 -8 -8 -22 -15 -30 -15 -9 0 -16
-7 -16 -16 0 -8 -4 -13 -9 -10 -21 13 -145 -205 -194 -340 -54 -149 -72 -264
-71 -449 0 -147 4 -185 27 -282 14 -62 30 -120 35 -130 8 -14 27 -17 109 -19
54 0 107 -4 118 -7 11 -3 25 -6 31 -6 30 -2 91 -89 81 -115 -3 -7 -21 -13 -40
-14 -20 -1 -53 -10 -74 -22 -21 -11 -45 -20 -53 -20 -9 0 -20 -4 -25 -9 -6 -5
-18 -11 -28 -13 -15 -2 -11 -13 27 -71 177 -269 422 -454 721 -546 179 -54
159 -58 276 53 56 53 111 101 123 107 22 11 0 -11 -127 -124 -43 -38 -77 -73
-77 -78 0 -11 6 -11 195 -12 72 -1 152 2 178 7 48 7 48 8 28 25 -12 10 -21 21
-21 25 0 4 -9 17 -20 28 -26 28 -22 39 21 54 25 9 28 13 13 13 -12 1 -24 8
-28 16 -4 12 -15 14 -48 9 -24 -4 -47 -12 -53 -18 -5 -6 -21 -20 -35 -31 -24
-19 -24 -19 3 17 41 56 14 46 -56 -19 l-62 -58 48 52 c26 29 47 56 47 62 0 5
14 18 32 29 l32 21 -60 -3 c-50 -1 -74 -10 -147 -49 -48 -26 -87 -45 -87 -43
0 3 38 28 85 56 75 45 107 70 91 70 -3 0 -45 -16 -92 -36 -100 -41 -126 -40
-30 2 36 15 64 29 62 31 -1 2 -29 -6 -61 -17 -32 -11 -60 -18 -62 -16 -6 6
108 46 132 46 44 0 77 18 70 39 -5 15 0 20 22 24 38 7 125 4 138 -5 6 -4 17
-2 25 3 13 8 13 11 -1 22 -9 6 -21 22 -28 35 -6 12 -18 22 -26 22 -8 0 -15 6
-15 13 0 9 -3 8 -9 -2 -6 -9 -11 -10 -15 -2 -12 18 -24 12 -19 -9 11 -41 -35
-58 -75 -27 -15 12 -12 67 6 85 13 15 16 42 5 43 -5 0 -18 2 -30 3 -39 4 -38
16 0 16 20 0 39 4 42 10 3 5 0 7 -8 5 -7 -3 -26 1 -41 9 -18 9 -23 16 -14 19
8 4 7 6 -5 6 -10 1 -16 5 -12 10 3 5 0 13 -6 17 -8 4 -9 3 -5 -4 5 -8 0 -12
-13 -12 -12 0 -21 7 -21 15 0 8 -5 15 -11 15 -8 0 -8 5 1 15 10 12 10 15 -3
15 -8 0 -17 4 -19 8 -1 4 -22 23 -44 41 -65 51 -52 75 43 85 55 5 64 3 77 -15
13 -19 14 -20 18 -3 3 18 5 17 23 -3 11 -11 28 -33 39 -48 16 -23 23 -26 52
-20 27 5 34 3 34 -10 0 -9 -7 -18 -15 -21 -28 -11 -15 -23 28 -26 l42 -3 1
-55 c1 -76 -5 -100 -25 -100 -21 0 -46 -37 -28 -43 21 -7 69 14 63 28 -2 8 2
16 11 19 22 9 55 -23 47 -46 -3 -10 -1 -18 5 -18 18 0 131 -116 131 -134 0
-10 5 -27 11 -38 9 -16 7 -28 -8 -55 -18 -34 -18 -35 1 -49 30 -21 33 -18 41
34 4 26 16 56 26 68 11 12 22 38 26 58 5 35 0 42 -29 37 -5 0 -8 6 -8 15 0 14
3 14 15 4 11 -9 15 -10 15 -1 0 15 -25 41 -39 41 -18 0 -12 18 8 25 11 3 29 0
39 -6 16 -10 19 -20 15 -46 -3 -18 -2 -33 1 -33 23 0 47 26 57 63 7 23 16 47
20 53 5 5 -1 29 -12 51 -11 22 -22 57 -26 76 -5 35 -5 36 33 42 55 10 80 29
94 70 12 36 13 36 53 30 66 -12 84 -46 50 -94 -9 -14 -11 -21 -5 -17 7 4 12 4
13 -1 2 -27 9 -47 24 -69 9 -14 15 -26 13 -27 -2 -1 -12 -8 -23 -15 -11 -7
-36 -20 -55 -29 -19 -9 -29 -18 -22 -20 19 -7 14 -30 -8 -36 -14 -4 -20 -14
-20 -35 0 -31 18 -46 44 -36 7 3 26 -6 42 -20 16 -14 23 -26 16 -26 -7 0 -20
9 -29 20 -10 11 -21 20 -26 20 -5 0 -4 -7 3 -15 10 -12 10 -15 -1 -16 -8 0 4
-9 26 -20 31 -15 34 -18 13 -14 -35 7 -36 -8 -2 -24 31 -14 44 -7 125 67 l54
50 -27 12 c-15 7 -25 17 -22 22 3 5 13 3 21 -3 12 -11 14 -10 11 7 -1 10 -13
27 -26 38 -13 10 -21 21 -18 23 3 3 -1 15 -9 25 -7 11 -11 27 -8 34 3 8 0 14
-7 14 -7 0 -10 7 -7 15 4 8 2 17 -3 20 -11 7 -70 128 -70 144 0 20 -47 31
-120 28 -93 -3 -119 -23 -142 -108 -10 -35 -16 -72 -14 -82 5 -23 5 -22 -39
19 -28 26 -35 38 -26 44 11 6 11 9 0 13 -8 3 -9 6 -2 6 6 1 9 10 6 21 -3 11 0
20 6 20 6 0 2 9 -9 20 -24 24 -25 33 -5 50 9 8 15 8 15 2 0 -6 -5 -12 -12 -14
-7 -3 -8 -9 -3 -18 13 -20 23 16 20 70 -3 49 3 69 15 49 6 -9 12 -8 25 5 13
13 15 20 6 29 -13 13 -14 82 -1 112 7 18 9 18 19 -10 18 -44 34 -124 28 -139
-9 -22 17 -50 38 -42 15 5 17 14 11 64 -14 111 -15 127 -10 145 3 9 10 17 15
17 13 0 11 -34 -3 -49 -11 -10 -10 -11 5 -5 13 5 16 2 11 -10 -3 -9 -1 -16 6
-16 6 0 10 8 8 18 -1 9 1 23 6 31 7 11 6 12 -5 6 -12 -7 -12 -6 -1 7 13 17 6
74 -11 85 -6 4 -7 1 -2 -8 4 -8 -1 -6 -11 4 -18 17 -18 18 11 42 25 20 27 24
11 25 -10 0 -27 9 -37 21 -10 11 -23 18 -28 14 -7 -4 -8 0 -4 11 5 13 2 15
-15 9 -12 -3 -22 -2 -22 3 0 5 40 52 88 103 48 52 98 109 111 127 22 32 24 32
42 16 11 -10 24 -35 31 -56 11 -38 28 -52 28 -22 0 11 6 15 20 11 11 -3 23 -1
26 4 10 17 52 10 59 -11 3 -11 11 -20 16 -20 12 0 11 7 -1 31 -9 16 -7 19 9
19 11 0 26 3 35 6 12 5 16 0 16 -17 1 -24 50 -95 50 -72 0 6 -5 15 -10 18 -6
4 -8 10 -5 15 3 5 -1 23 -10 41 -9 17 -15 32 -13 33 2 1 23 10 48 20 25 10 53
22 62 27 24 12 130 11 164 -1 41 -16 39 -6 -6 25 -21 15 -42 36 -46 47 -3 11
-22 27 -42 35 -33 13 -72 44 -72 56 0 3 19 12 41 21 77 31 141 96 94 96 -8 0
-15 -4 -15 -9 0 -5 -10 -13 -22 -17 -13 -4 -47 -22 -76 -40 -29 -19 -55 -34
-59 -34 -3 0 -12 -8 -19 -17 -8 -10 -14 -13 -14 -6 0 9 -8 8 -27 -3 -23 -12
-71 -32 -93 -39 -3 -1 -17 -7 -32 -15 -22 -10 -26 -16 -16 -27 9 -11 6 -19
-12 -36 l-24 -22 19 23 c13 16 15 26 8 33 -8 8 -16 3 -27 -19 -8 -16 -12 -32
-9 -36 4 -3 1 -6 -5 -6 -16 0 -15 41 1 61 7 8 21 21 32 27 16 9 3 10 -60 5
-44 -3 -87 -9 -95 -14 -10 -5 -11 -8 -2 -9 16 0 15 -20 -2 -20 -12 0 -50 -112
-45 -136 4 -23 -5 -33 -67 -74 -89 -59 -145 -68 -218 -34 -42 19 -69 24 -118
23 -109 -2 -156 33 -104 78 15 12 33 23 40 23 17 0 37 -45 29 -66 -4 -12 -2
-15 8 -12 9 3 15 23 17 55 2 42 8 54 27 67 32 21 31 28 -6 50 -53 31 -74 58
-74 96 -1 19 4 40 10 46 7 7 9 34 5 75 -10 100 -4 229 12 284 14 47 14 53 -3
88 -11 21 -27 37 -37 37 -9 0 -37 12 -61 26 -25 13 -50 23 -57 20 -7 -3 -17 1
-23 8 -6 7 -29 19 -51 26 -33 11 -48 11 -74 2 -39 -14 -57 -15 -36 -2 11 7 4
10 -27 10 -36 0 -42 3 -40 19 2 10 9 26 16 35 7 9 11 16 8 16 -3 0 0 12 8 27
8 15 12 30 10 34 -3 4 2 22 10 40 8 19 14 27 15 19 0 -13 1 -13 10 0 5 8 10
11 10 6 0 -5 9 1 20 14 22 25 24 31 13 29 -37 -6 -47 5 -58 61 -2 12 -7 30
-10 41 -4 11 -1 26 5 34 7 8 11 14 9 14 -2 -1 -29 -5 -60 -10z m-835 -614 c-3
-13 -1 -32 5 -43 6 -11 8 -28 4 -38 -6 -16 -7 -16 -14 2 -12 29 -11 116 1 109
6 -3 7 -17 4 -30z m113 -7 c-3 -8 -6 -5 -6 6 -1 11 2 17 5 13 3 -3 4 -12 1
-19z m893 -119 c0 -6 -35 -19 -52 -19 -4 0 -5 6 -3 13 5 12 55 18 55 6z m-33
-93 c-5 -35 -32 -97 -60 -139 -15 -22 -22 -25 -33 -16 -8 6 -14 18 -14 26 0 7
-6 16 -14 19 -8 3 -12 12 -9 20 3 7 -2 17 -11 20 -9 3 -13 10 -11 15 3 4 -3
14 -14 20 -16 11 -17 15 -5 26 8 8 33 16 56 17 52 4 88 14 88 26 0 5 7 7 16 3
11 -4 14 -15 11 -37z m-956 4 c5 0 9 -5 9 -11 0 -5 -5 -7 -12 -3 -8 5 -9 2 -5
-9 9 -25 2 -21 -18 10 -16 24 -16 26 0 20 9 -4 21 -7 26 -7z m2002 -221 c-6
-6 -9 -17 -7 -24 3 -7 1 -16 -5 -20 -7 -3 -8 0 -5 9 3 9 1 16 -4 16 -12 0 -52
-53 -52 -69 0 -6 -4 -11 -10 -11 -28 0 10 64 55 91 34 22 44 24 28 8z m-38
-79 c-3 -5 -12 -10 -18 -10 -7 0 -6 4 3 10 19 12 23 12 15 0z m-863 -229 c-11
-7 -11 -9 2 -14 9 -4 16 -13 16 -21 0 -19 -26 -10 -34 11 -7 18 1 33 17 33 8
0 8 -3 -1 -9z m52 -26 c3 -8 -1 -21 -9 -29 -17 -17 -20 -36 -4 -36 5 0 7 -5 4
-10 -5 -8 -12 -7 -22 1 -11 10 -16 10 -23 0 -5 -9 -10 -10 -14 -2 -4 6 1 14
11 18 23 9 33 23 33 51 0 25 15 30 24 7z m-94 -25 c5 0 7 7 4 15 -4 8 -1 15 5
15 5 0 9 -13 8 -29 -1 -18 -7 -27 -14 -24 -7 3 -13 -2 -13 -12 0 -9 -5 -13
-10 -10 -8 5 -8 11 -1 19 6 7 9 21 7 32 -2 10 -1 13 1 7 3 -7 8 -13 13 -13z
m-940 -40 c0 -5 -4 -10 -10 -10 -5 0 -10 5 -10 10 0 6 5 10 10 10 6 0 10 -4
10 -10z m1066 -35 c1 -14 -2 -23 -7 -20 -5 4 -9 -3 -9 -14 0 -10 3 -21 8 -24
4 -2 2 -3 -4 -1 -6 1 -17 -3 -24 -9 -8 -8 -6 1 3 25 9 20 13 39 10 42 -3 3 -3
13 1 22 8 21 19 11 22 -21z m-1066 -12 l30 -28 -27 -2 c-17 -1 -22 2 -13 7 11
7 9 13 -11 29 -13 11 -20 20 -16 21 4 0 21 -12 37 -27z m1198 2 c-3 -3 -9 2
-12 12 -6 14 -5 15 5 6 7 -7 10 -15 7 -18z m282 15 c-8 -5 -19 -10 -25 -10 -5
0 -3 5 5 10 8 5 20 10 25 10 6 0 3 -5 -5 -10z m-1683 -22 c-3 -8 -6 -5 -6 6
-1 11 2 17 5 13 3 -3 4 -12 1 -19z m1194 -36 l1 -47 8 38 c12 61 17 52 15 -28
-1 -41 2 -72 6 -69 9 5 10 1 14 -41 4 -52 18 -85 36 -85 11 0 19 7 20 18 0 9
2 50 4 91 2 40 7 77 12 81 17 17 51 -28 74 -99 14 -40 28 -72 33 -72 5 0 10
19 12 41 3 25 0 39 -7 37 -11 -2 -49 103 -49 136 0 15 -17 22 -42 18 -5 0 -8
9 -7 21 0 13 3 18 5 11 3 -7 11 -10 19 -7 15 6 49 -49 37 -61 -4 -3 -2 -6 3
-5 27 6 34 -4 40 -55 4 -30 11 -58 16 -61 13 -8 11 -42 -3 -47 -10 -3 -9 -8 3
-18 30 -25 39 -109 16 -146 -6 -10 -13 -9 -32 3 -18 12 -24 12 -28 2 -3 -7 -6
-3 -6 10 -1 12 3 22 8 22 11 0 1 53 -12 62 -17 10 -47 -11 -47 -33 0 -28 28
-91 37 -86 5 3 7 -13 5 -35 -7 -72 -58 -56 -81 25 -26 88 -42 110 -92 123 -26
6 -92 10 -148 9 -56 -2 -101 1 -101 5 0 20 13 40 26 40 8 0 14 6 14 13 0 22
40 48 63 42 38 -11 67 -28 61 -37 -3 -4 -1 -8 5 -8 5 0 13 5 16 10 4 6 12 8
18 4 7 -3 5 0 -3 8 -8 7 -17 22 -18 33 -2 11 -10 23 -17 27 -14 9 -55 82 -55
100 0 7 6 3 14 -7 8 -11 12 -23 10 -27 -2 -4 0 -9 6 -13 5 -3 10 1 10 10 0 9
5 13 10 10 10 -6 14 12 11 52 -1 11 3 24 8 28 10 5 16 -27 12 -61 -1 -6 5 -11
13 -11 10 0 12 11 8 45 -4 32 -2 43 7 38 6 -4 12 -28 12 -54z m-786 8 c-3 -5
-12 -10 -18 -10 -7 0 -6 4 3 10 19 12 23 12 15 0z m30 -10 c-3 -5 -11 -10 -16
-10 -6 0 -7 5 -4 10 3 6 11 10 16 10 6 0 7 -4 4 -10z m600 -38 c3 -8 3 -17 0
-20 -3 -3 -5 0 -5 7 0 7 -4 10 -9 7 -5 -3 -11 0 -14 7 -3 8 1 14 9 14 7 0 16
-7 19 -15z m616 -5 c-1 -4 -1 -11 -1 -16 0 -5 -6 -11 -14 -14 -9 -4 -15 4 -18
23 -4 24 -2 27 15 21 10 -4 18 -10 18 -14z m-636 -46 c5 -15 3 -21 -3 -17 -6
3 -17 3 -26 0 -13 -5 -14 -9 -5 -20 13 -15 1 -18 -19 -5 -7 4 -12 13 -10 18 2
6 -8 20 -21 32 -21 18 -22 21 -6 21 10 0 27 -8 38 -17 15 -13 18 -14 12 -3 -8
13 -7 13 10 0 17 -14 18 -13 12 15 -8 34 6 16 18 -24z m-971 21 c3 -5 -1 -9
-9 -9 -8 0 -12 4 -9 9 3 4 7 8 9 8 2 0 6 -4 9 -8z m1484 -147 c-3 -3 -9 2 -12
12 -6 14 -5 15 5 6 7 -7 10 -15 7 -18z m-328 -75 c0 -5 -4 -10 -10 -10 -5 0
-10 5 -10 10 0 6 5 10 10 10 6 0 10 -4 10 -10z m227 -82 c-3 -8 -6 -5 -6 6 -1
11 2 17 5 13 3 -3 4 -12 1 -19z m63 8 c0 -3 -4 -8 -10 -11 -5 -3 -10 -1 -10 4
0 6 5 11 10 11 6 0 10 -2 10 -4z m-68 -41 c-4 -5 -8 -19 -9 -30 -3 -15 -1 -17
9 -7 19 19 27 14 26 -17 -1 -23 -5 -27 -20 -23 -15 4 -17 7 -6 13 10 7 10 9
-2 9 -9 0 -21 -5 -28 -12 -17 -17 -14 3 3 26 9 12 11 24 5 35 -6 13 -4 17 10
17 10 0 16 -5 12 -11z m68 -15 c0 -5 -5 -10 -11 -10 -5 0 -7 5 -4 10 3 6 8 10
11 10 2 0 4 -4 4 -10z m-280 -264 c0 -2 -7 -7 -16 -10 -8 -3 -12 -2 -9 4 6 10
25 14 25 6z m629 -16 c-13 -9 -39 -2 -39 10 0 4 12 5 26 2 17 -3 22 -7 13 -12z
m-795 -37 c4 -4 -31 -17 -76 -30 -93 -25 -118 -28 -73 -8 l30 14 -42 1 c-23 0
-77 -7 -120 -15 -84 -16 -99 -18 -91 -10 10 11 166 37 258 45 52 4 98 8 101 8
3 1 9 -1 13 -5z m-214 -173 c-30 -16 -59 -29 -65 -29 -5 0 15 13 45 29 30 16
60 29 65 29 6 0 -15 -13 -45 -29z"/>
<path d="M1532 940 c0 -14 2 -19 5 -12 2 6 2 18 0 25 -3 6 -5 1 -5 -13z"/>
<path d="M1630 825 c-11 -13 -10 -14 4 -9 9 3 16 10 16 15 0 13 -6 11 -20 -6z"/>
<path d="M1235 2450 c-3 -5 -1 -10 4 -10 6 0 11 5 11 10 0 6 -2 10 -4 10 -3 0
-8 -4 -11 -10z"/>
<path d="M2045 2307 c0 -62 -3 -123 -7 -137 l-7 -26 -133 3 c-73 1 -138 5
-145 7 -7 3 -10 -1 -7 -8 3 -8 -7 -12 -35 -10 -26 1 -42 -3 -45 -12 -3 -8 -11
-14 -17 -14 -21 0 -38 -33 -27 -53 5 -11 7 -34 3 -53 -5 -27 -3 -34 10 -34 8
0 20 -11 25 -25 5 -14 17 -25 26 -25 14 0 15 -2 3 -17 -10 -12 -10 -15 -1 -9
8 5 19 -1 31 -15 25 -31 122 -32 172 -2 22 13 46 19 66 16 30 -4 32 -2 38 31
4 19 4 40 0 46 -4 7 -1 16 6 21 11 7 10 9 -3 9 -10 0 -18 5 -18 10 0 13 23 13
37 -1 19 -19 36 28 30 85 -3 31 4 96 17 166 24 123 24 135 -2 149 -15 8 -17
-2 -17 -102z m-223 -346 c-3 -21 2 -33 23 -49 l26 -21 -28 -3 c-15 -2 -44 1
-65 5 -34 8 -36 11 -32 40 4 35 27 57 59 57 18 0 21 -5 17 -29z"/>
<path d="M321 1816 c-7 -8 -8 -17 -3 -20 6 -3 13 1 16 10 9 23 2 28 -13 10z"/>
<path d="M250 1530 c-8 -5 -12 -12 -9 -15 4 -3 12 1 19 10 14 17 11 19 -10 5z"/>
<path d="M1626 1519 c-14 -11 -26 -25 -26 -30 0 -11 75 25 85 41 11 18 -32 10
-59 -11z"/>
<path d="M843 1474 c-7 -7 -13 -21 -13 -31 1 -13 5 -10 16 10 17 32 16 42 -3
21z"/>
<path d="M1085 1480 c3 -5 20 -19 38 -32 l32 -23 -25 32 c-22 28 -60 48 -45
23z"/>
<path d="M422 1460 c15 -24 25 -26 25 -5 0 8 -4 12 -9 9 -4 -3 -8 0 -8 5 0 6
-5 11 -10 11 -6 0 -5 -8 2 -20z"/>
<path d="M2180 1373 c0 -4 5 -15 10 -23 8 -13 10 -13 10 2 0 9 -4 20 -10 23
-5 3 -10 3 -10 -2z"/>
<path d="M406 1343 c-6 -14 -5 -15 5 -6 7 7 10 15 7 18 -3 3 -9 -2 -12 -12z"/>
<path d="M2497 1325 c3 -23 1 -35 -7 -35 -10 0 -10 -4 0 -15 11 -13 6 -15 -31
-15 -24 0 -82 7 -129 16 -153 29 -180 27 -180 -9 -1 -20 -2 -20 -11 -4 -5 9
-7 22 -4 27 4 6 -8 10 -27 10 -31 -1 -32 -2 -14 -15 10 -8 16 -20 13 -27 -2
-8 1 -22 9 -33 18 -24 18 -41 0 -26 -11 9 -16 9 -22 0 -4 -7 -3 -14 3 -16 6
-2 18 -10 28 -17 17 -12 14 -13 -21 -10 -30 2 -35 0 -21 -7 9 -6 21 -8 25 -5
4 2 18 -2 32 -10 l25 -13 -27 -1 c-15 0 -30 -5 -34 -12 -5 -7 -3 -8 7 -3 12 7
12 6 1 -7 -11 -14 -10 -18 5 -28 15 -9 12 -10 -16 -7 -40 5 -111 -11 -111 -25
0 -5 -4 -7 -8 -4 -4 2 -8 -4 -8 -15 0 -16 5 -19 23 -14 30 7 30 -11 1 -19 -23
-6 -23 -7 -3 -18 11 -7 25 -13 30 -14 6 -2 45 -16 87 -33 43 -17 85 -28 95
-24 12 5 14 3 8 -7 -6 -10 -3 -12 13 -8 12 3 20 1 19 -4 -1 -5 8 -14 21 -19
26 -10 31 5 5 16 -16 7 -14 9 7 15 17 4 33 1 52 -12 14 -10 30 -18 36 -18 5 0
12 -9 15 -21 8 -29 28 -14 25 19 -2 21 1 27 17 27 13 0 20 6 19 18 -2 18 11
21 74 17 21 -1 34 4 38 14 3 9 10 14 14 11 9 -5 34 66 44 120 13 78 16 145 6
145 -9 0 -14 -20 -11 -45 1 -5 -7 0 -18 13 -11 12 -25 22 -33 22 -16 0 -38 19
-38 34 0 5 8 2 18 -7 10 -10 26 -17 35 -17 30 0 27 18 -8 40 -21 13 -37 32
-41 48 -11 51 -15 62 -24 62 -4 0 -6 -16 -3 -35z m-310 -97 c-3 -8 -6 -5 -6 6
-1 11 2 17 5 13 3 -3 4 -12 1 -19z m178 -346 c-3 -3 -11 0 -18 7 -9 10 -8 11
6 5 10 -3 15 -9 12 -12z m32 -44 c-3 -8 -6 -5 -6 6 -1 11 2 17 5 13 3 -3 4
-12 1 -19z"/>
<path d="M481 1321 c-8 -14 -7 -22 6 -32 15 -13 16 -11 9 14 -5 21 -4 27 5 21
8 -4 9 -3 5 4 -10 16 -14 15 -25 -7z"/>
<path d="M2226 1331 c-3 -5 1 -11 9 -15 9 -3 15 0 15 9 0 16 -16 20 -24 6z"/>
<path d="M405 1301 c3 -6 11 -8 17 -5 7 5 9 1 5 -9 -3 -10 -2 -17 4 -17 18 0
5 35 -15 38 -11 3 -16 0 -11 -7z"/>
<path d="M581 1284 c0 -11 3 -14 6 -6 3 7 2 16 -1 19 -3 4 -6 -2 -5 -13z"/>
<path d="M1190 1269 c0 -6 -5 -7 -11 -3 -7 4 -10 1 -7 -6 6 -18 48 -24 48 -6
0 8 -7 16 -15 20 -8 3 -15 1 -15 -5z"/>
<path d="M486 1255 c4 -8 8 -15 10 -15 2 0 4 7 4 15 0 8 -4 15 -10 15 -5 0 -7
-7 -4 -15z"/>
<path d="M405 1251 c-10 -10 -4 -17 15 -17 11 0 21 5 24 11 4 10 -30 16 -39 6z"/>
<path d="M551 1224 c0 -11 3 -14 6 -6 3 7 2 16 -1 19 -3 4 -6 -2 -5 -13z"/>
<path d="M469 1213 c-13 -16 -12 -17 4 -4 9 7 17 15 17 17 0 8 -8 3 -21 -13z"/>
<path d="M831 1186 c-1 -29 2 -37 10 -29 8 8 8 19 1 40 -10 28 -10 28 -11 -11z"/>
<path d="M440 1182 c0 -5 7 -15 15 -22 8 -7 15 -9 15 -6 0 4 -7 14 -15 22 -8
9 -15 11 -15 6z"/>
<path d="M546 1178 c3 -5 10 -6 15 -3 13 9 11 12 -6 12 -8 0 -12 -4 -9 -9z"/>
<path d="M515 1170 c-3 -5 -1 -10 4 -10 6 0 11 5 11 10 0 6 -2 10 -4 10 -3 0
-8 -4 -11 -10z"/>
<path d="M980 1120 c0 -6 -4 -8 -10 -5 -5 3 -10 1 -10 -4 0 -13 10 -14 29 -2
9 6 10 11 2 15 -6 4 -11 2 -11 -4z"/>
<path d="M1110 1101 c0 -5 5 -13 10 -16 6 -3 10 -2 10 4 0 5 -4 13 -10 16 -5
3 -10 2 -10 -4z"/>
<path d="M1941 1004 c0 -11 3 -14 6 -6 3 7 2 16 -1 19 -3 4 -6 -2 -5 -13z"/>
<path d="M1940 939 c-13 -7 -13 -10 -1 -18 8 -5 11 -16 6 -30 -3 -11 -2 -21 3
-21 6 0 8 -10 5 -22 -4 -20 -3 -21 7 -5 14 22 32 22 60 -3 27 -23 40 -19 17 5
-9 9 -13 23 -10 32 5 12 2 15 -9 11 -15 -6 -48 23 -48 42 0 15 -15 19 -30 9z"/>
<path d="M2300 871 c0 -9 28 -41 35 -41 3 0 -1 11 -7 25 -11 25 -28 34 -28 16z"/>
<path d="M2488 862 c-7 -10 -21 -21 -30 -25 -21 -7 -22 -16 -7 -37 8 -11 12
-12 16 -2 7 18 21 15 28 -8 3 -11 11 -20 16 -20 6 0 6 7 -1 19 -12 24 -3 52
15 45 17 -7 29 27 13 38 -20 12 -36 9 -50 -10z m42 -2 c13 -8 13 -10 -1 -10
-9 0 -22 -7 -29 -15 -7 -8 -20 -14 -29 -14 -15 1 -15 2 0 6 10 2 19 13 22 24
6 21 15 23 37 9z"/>
<path d="M1775 817 c-9 -10 -12 -72 -6 -117 1 -8 9 5 17 28 9 24 12 51 8 60
-4 10 -6 23 -5 30 2 15 -1 15 -14 -1z"/>
<path d="M1966 625 c-11 -8 -29 -15 -41 -15 -11 0 -29 -10 -39 -22 -15 -18
-16 -20 -2 -15 10 4 16 1 16 -8 0 -8 -6 -15 -12 -15 -16 0 42 -49 58 -50 7 0
15 7 18 16 5 12 2 15 -9 10 -9 -3 -13 -2 -10 4 3 6 13 10 21 10 20 0 18 18 -3
23 -13 3 -10 5 7 6 34 2 59 23 56 47 -4 24 -35 29 -60 9z m-36 -49 c0 -3 -4
-8 -10 -11 -5 -3 -10 -1 -10 4 0 6 5 11 10 11 6 0 10 -2 10 -4z m7 -32 c-3 -3
-12 -4 -19 -1 -8 3 -5 6 6 6 11 1 17 -2 13 -5z"/>
<path d="M2341 531 c-14 -25 -14 -31 -1 -31 6 0 10 7 10 15 0 8 3 14 8 13 4
-2 8 1 10 7 7 19 -17 16 -27 -4z"/>
<path d="M1890 356 c-6 -6 -10 -18 -10 -28 0 -15 4 -16 24 -7 31 14 40 45 14
45 -10 0 -23 -5 -28 -10z"/>
<path d="M1354 299 c-5 -8 1 -10 18 -7 13 2 30 -2 37 -9 7 -8 20 -12 28 -9 8
3 26 6 39 6 15 0 24 6 24 15 0 12 -14 15 -69 15 -42 0 -73 -5 -77 -11z"/>
<path d="M1310 279 c0 -5 5 -7 10 -4 6 3 10 8 10 11 0 2 -4 4 -10 4 -5 0 -10
-5 -10 -11z"/>
<path d="M1980 286 c0 -2 9 -6 20 -9 11 -3 18 -1 14 4 -5 9 -34 13 -34 5z"/>
<path d="M1855 271 c-3 -5 -1 -13 5 -16 14 -9 70 4 70 16 0 12 -67 12 -75 0z"/>
<path d="M1989 257 c11 -14 11 -17 0 -17 -8 0 -6 -6 7 -16 19 -15 19 -16 -1
-8 -43 15 -82 -3 -70 -33 2 -6 -1 -14 -8 -16 -7 -2 -9 -8 -5 -11 8 -9 78 22
78 34 0 5 9 12 21 15 17 6 18 9 7 22 -11 14 -11 15 8 5 20 -11 34 -7 34 9 0 4
-11 10 -24 13 -13 3 -32 9 -43 13 -16 6 -16 5 -4 -10z m-4 -55 c-3 -3 -11 0
-18 7 -9 10 -8 11 6 5 10 -3 15 -9 12 -12z"/>
<path d="M1425 240 c-3 -5 1 -10 10 -10 9 0 13 5 10 10 -3 6 -8 10 -10 10 -2
0 -7 -4 -10 -10z"/>
<path d="M1830 163 c-41 -5 -55 -15 -74 -54 -12 -25 -12 -29 0 -29 25 0 94 32
88 41 -3 5 2 6 12 2 13 -5 15 -2 9 18 -6 20 -5 22 6 12 18 -18 34 -16 19 2 -7
8 -15 14 -19 13 -3 0 -22 -3 -41 -5z"/>
</g>
</svg>
